<?xml version="1.0" encoding="utf-8"?>
<!-- Generator: Adobe Illustrator 16.0.0, SVG Export Plug-In . SVG Version: 6.00 Build 0)  -->
<!DOCTYPE svg PUBLIC "-//W3C//DTD SVG 1.1//EN" "http://www.w3.org/Graphics/SVG/1.1/DTD/svg11.dtd">
<svg version="1.1" id="圖層_1" xmlns="http://www.w3.org/2000/svg" xmlns:xlink="http://www.w3.org/1999/xlink" x="0px" y="0px"
	 width="800px" height="800px" viewBox="0 0 800 800" style="enable-background:new 0 0 800 800;" xml:space="preserve">
<g>
	<path style="fill:#1DAADB;" d="M701.9,415.7c0,166.8-135.2,302-302,302C233.2,717.7,98,582.5,98,415.7c0-166.8,135.2-302,301.9-302
		C566.7,113.8,701.9,249,701.9,415.7z"/>
	<g>
		<path style="fill:#1DAADB;" d="M244.7,126.8l-7.2,4.7l2,3.1c1.2,1.8,1.4,2.9,0.4,4.3c-1,1.3-2.8,2.5-5.2,4.1
			c-0.8-0.9-2.2-2-3.3-2.7c1.6-0.9,3.4-2.1,4-2.5c0.5-0.4,0.6-0.6,0.3-1l-2-3l-9.1,5.9c2,0.1,4.1,0.3,5.4,0.7l-1.3,4.3
			c-1.8-0.7-5.1-1.1-7.7-1.2l0.6-2l-6.5,4.2l-2-3l18.5-12l-0.8-1.2c-6.3,4.3-12.4,8.4-16.9,11.3l-1.9-2.7c3.1-1.9,7-4.6,11.4-7.4
			l-0.8-1.2l-9.3,6.1l-6.1-9.3l9.3-6.1l-0.8-1.2l-11.9,7.7l-1.9-2.9l11.9-7.7l-1.3-2l3.8-2.4l1.3,2l11.8-7.7l1.9,2.9l-11.8,7.7
			l0.8,1.2l9.8-6.4l6.1,9.3l-2.2,1.4c2.2-0.2,4.3-0.2,5.9-0.1l-1.1,3.5c-0.6-0.1-1.3-0.2-2.1-0.2l-2.3,1.6l0.8,1.3l7.2-4.7
			L244.7,126.8z M213.3,127.7l5.7-3.7l-0.8-1.2l-5.7,3.7L213.3,127.7z M221.3,127.4l-0.8-1.2l-5.7,3.7l0.8,1.2L221.3,127.4z
			 M222.1,120.3l0.8,1.2l6-3.9l-0.8-1.2L222.1,120.3z M231.1,121l-0.8-1.2l-6,3.9l0.8,1.2L231.1,121z M227.3,128.4l4.1-2.7
			c-0.6,0.1-1.2,0.2-1.7,0.3l0.3-0.9l-3.4,2.2L227.3,128.4z"/>
		<path style="fill:#1DAADB;" d="M280.2,104l1.7,3.4l-13.5,6.5l3.8,7.9l-4.1,2l-3.8-7.9l-13.3,6.4l-1.7-3.4l13.3-6.4l-0.7-1.5
			l-10,4.9l-1.4-3l10-4.9l-0.8-1.6l-11.8,5.7l-1.5-3.1l6.4-3.1c-0.7-0.6-1.7-1.4-2.5-1.9l2.1-1.7l-8.9,4.3l-1.6-3.2l4.7-2.3
			c-1.2-1.1-2.9-2.3-4.3-3.2l3-2.9c1.8,1,3.9,2.5,5,3.6l-1.4,1.4l3.2-1.5l-2.7-5.7l3.8-1.9l2.7,5.7l2.6-1.3l-2.7-5.7l3.9-1.9
			l2.7,5.7l3.1-1.5l-1.4,0.2c0.1-1.8,0-4.4-0.2-6.1l4.8-1.1c-0.2,2.1-0.4,4.1-0.7,5.7l4.5-2.2l1.6,3.2l-9.2,4.4l3.7-0.7
			c-0.4,1.2-0.7,2.3-1,3.3l6.7-3.3l1.5,3.1l-12.1,5.8l0.8,1.6l10.4-5.1l1.4,3L266,109l0.7,1.5L280.2,104z M264.6,118.8
			c-1.4,3.1-4.7,7-7.9,9.5c-0.9-0.6-2.7-1.5-3.9-1.8c3.2-2.2,6.7-5.3,8.2-7.6L264.6,118.8z M254.2,101.4c1,0.6,2,1.3,2.7,1.9
			l-1.7,1.4l9.5-4.6l-1.4,0.2c0.2-1.1,0.4-2.5,0.5-3.5L254.2,101.4z M273.1,112.8c3.3-0.3,8.3-0.6,11-0.5l-1.8,3.7
			c-2.6-0.2-7.5,0-11,0.2L273.1,112.8z"/>
		<path style="fill:#1DAADB;" d="M316.5,86.6c-0.5-2.1,0.5-4,2.5-4.5s3.8,0.7,4.4,2.7c0.5,2-0.5,3.9-2.5,4.4
			C318.9,89.7,317,88.5,316.5,86.6z"/>
		<path style="fill:#1DAADB;" d="M373.8,76.5c-0.4,3.5-1.2,6.9-2.6,9.8c0.6,0.3,1.3,0.7,2.2,1.2c2.8,1.3,6.4,1.4,10.8,1.1
			c4.3-0.3,11.3-1.1,15.6-2c-0.5,1.3-1.1,3.6-1.1,4.9c-3.1,0.4-10,1.1-14.5,1.3c-5.1,0.3-8.4,0.1-11.3-1.3c-1.7-0.8-3.1-1.8-3.9-1.8
			c-0.9,0.1-2.2,2.7-3.1,4.8l-3.3-4.3c1.1-1.5,2.3-2.7,3.5-3.5c1.3-2,2.3-4.6,2.8-7.1l-5.4,0.3c0.9-2.3,1.8-5.5,2.7-8.6l-3.9,0.2
			l-0.2-4.1l9.7-0.6c-0.8,2.8-1.7,6-2.6,8.7l1-0.1l0.7-0.2L373.8,76.5z M366.6,66.4c-0.8-1.7-2.2-4.5-3.3-6.5l3.9-1.7
			c1.1,2,2.5,4.5,3.4,6.2L366.6,66.4z M392.9,58.6c0.7,13.9,1.2,22.9,2.8,22.8c0.4,0,0.5-2,0.4-4.4c0.8,1.2,1.9,2.6,2.8,3.3
			c-0.2,3.8-0.9,5.7-3.3,5.8c-5.2,0.3-6.1-8.7-7.1-23.1l-15.4,0.9l-0.3-4.1L392.9,58.6z M378.9,75.9l-5.4,0.3l-0.2-4.1l5.4-0.3
			l-0.4-7.1l4.4-0.3l0.4,7.1l5.1-0.3l0.2,4.1l-5.1,0.3l0.7,11.5l-4.4,0.3L378.9,75.9z"/>
		<path style="fill:#1DAADB;" d="M417.3,75.9c-0.9,3.4-2.2,6.7-3.9,9.4c0.6,0.4,1.2,0.9,2.1,1.4c2.5,1.7,6.2,2.2,10.6,2.6
			c4.3,0.3,11.3,0.5,15.7,0.2c-0.6,1.2-1.5,3.4-1.7,4.8c-3.2,0-10-0.3-14.5-0.7c-5.1-0.4-8.3-1.1-11-2.8c-1.6-1-2.8-2.2-3.6-2.3
			c-0.9-0.1-2.5,2.3-3.7,4.3l-2.7-4.7c1.3-1.3,2.7-2.3,3.9-3c1.6-1.8,2.9-4.3,3.8-6.7l-5.4-0.4c1.2-2.2,2.5-5.2,3.8-8.1l-3.9-0.3
			l0.3-4.1l9.7,0.7c-1.1,2.7-2.5,5.7-3.7,8.2l1,0.1l0.7-0.1L417.3,75.9z M411.6,64.9c-0.5-1.8-1.7-4.7-2.3-6.9l4.1-1.2
			c0.8,2.2,1.9,4.9,2.5,6.6L411.6,64.9z M427.6,65.4l-9.5-0.7l0.3-3.8l9.5,0.7l0.3-3.3l4.5,0.3l-0.3,3.3l10.1,0.8l-0.3,3.8L432,65.7
			l-0.2,2.1l8.8,0.7l-0.8,10.4l-7.2-0.6c3,2.1,6.2,4.7,8,6.5l-3.1,2.9c-1.4-1.7-4.1-4-6.7-6.1l-0.5,6.7l-4.5-0.3l0.5-6.9
			c-2.3,2.5-5.2,4.6-8,5.7c-0.5-1.1-1.8-2.8-2.6-3.7c3.3-1,6.7-3.1,8.9-5.5l-6.4-0.5l0.8-10.4l8.4,0.6L427.6,65.4z M422.7,74
			l4.2,0.3l0.3-3.4l-4.2-0.3L422.7,74z M431.6,71.3l-0.3,3.4l4.3,0.3l0.3-3.4L431.6,71.3z"/>
		<path style="fill:#1DAADB;" d="M480.9,85.9c0.6-2,2.5-3.2,4.4-2.7c1.9,0.5,3,2.5,2.4,4.6c-0.5,2-2.4,3.1-4.4,2.6
			C481.4,89.9,480.4,87.9,480.9,85.9z"/>
		<path style="fill:#1DAADB;" d="M531.9,113.4l5.5,2.7l-1.6,3.2l-5.5-2.7l-2.3,4.7l-3.9-2l2.3-4.7l-5.9-3l1.6-3.2l5.9,3l1.2-2.5
			l-5-2.5l6.5-13.1l4.9,2.4l1.3-2.6l-5.6-2.8l1.6-3.2l5.6,2.8l1.3-2.7l4,2l-1.3,2.7l5.8,2.9l-1.6,3.2l-5.8-2.9l-1.3,2.6l5,2.5
			l-0.6,1.1c3.3-1.4,6.8-4,9.5-7l3.5,3c-1,1.1-2.1,2-3.2,3l9.4,4.7l-2,3.9l-11.3-5.7c-1.5,1-3,1.9-4.4,2.5c-0.4-0.9-1.2-2.5-1.9-3.6
			l-5.6,11.2l-4.9-2.5L531.9,113.4z M529.3,105.1l6.5,3.2l1.1-2.2l-6.5-3.2L529.3,105.1z M531.6,100.5l6.5,3.2l1.1-2.3l-6.5-3.2
			L531.6,100.5z M547.4,126c1,0.5,1.6,0.2,3.6-3.6c0.8,1.1,1.8,2.2,2.8,3c-3.3,5.5-5.2,6.1-8.5,4.4l-5.1-2.5c-3.9-2-4.9-4.6-3.6-7.1
			c0.9-1.7,2.1-3.4,12.1-7.9l-5.7-2.9l1.9-3.8l9.5,4.7l0.9,0.4l2.1,2.4c-0.2,0.2-0.5,0.5-0.8,0.7c-13.5,5.3-14.9,6.6-15.5,7.8
			c-0.4,0.7,0.1,1.3,1.2,1.8L547.4,126z"/>
		<path style="fill:#1DAADB;" d="M556.6,132.6c3.2-1.3,8.1-3.7,12.3-6.2l0.8,4.3c-3.8,2.3-8.1,4.5-11.9,6.4L556.6,132.6z M569,124.3
			c-0.4-1.9-1.8-5-3.1-7.2l3.8-1.6c1.3,2,2.9,5.1,3.4,7L569,124.3z M592.1,143.7l-2.2-1.5l-3.3,4.8l-7.4-5.1l-2.2,3.2
			c-1.3,1.8-2.2,2.5-3.8,2.2c-1.5-0.3-3.3-1.4-5.7-3.1c0.6-1.1,1.1-2.8,1.3-4.1c1.5,1.1,3.2,2.3,3.7,2.6c0.5,0.3,0.7,0.3,1-0.1
			l2.2-3.2l-6.8-4.7l2.1-3l6.8,4.7l1.2-1.8l-8.4-5.8l2.2-3.2l8.4,5.8l1.2-1.7l-6.5-4.5l2.1-3l1.4,1c0.4-1.3,0.6-3.1,0.6-4.7l3.4,0.6
			c0.1,1.7-0.1,3.8-0.5,5.2l-2.4-0.4l14.9,10.3l-3.2,4.7l2.2,1.5L592.1,143.7z M576.5,116.8c-0.3-1.9-1.6-5.1-2.8-7.2l3.8-1.5
			c1.3,2,2.8,5.1,3.2,7.1L576.5,116.8z M600.3,127.2c-5.9-2-13.3-6-19.5-9.7c0.5-0.9,0.9-2.5,1.1-3.5c6,3.6,13.1,7.2,17.8,8.8
			L600.3,127.2z M586.6,139.9l-4.1-2.8l-1.2,1.8l4.1,2.8L586.6,139.9z M584.7,133.9l4.1,2.8l1.2-1.7l-4.1-2.8L584.7,133.9z
			 M585.5,127.4c0.6-1.4,1.1-3.6,1.3-5.5l3.4,1c-0.1,1.8-0.6,4.1-1.1,5.5L585.5,127.4z M590.4,129.3c1.7-0.7,4.2-2,5.8-3.1l2.9,3.3
			c-2.3,1.1-4.5,2.1-6.2,2.8L590.4,129.3z"/>
	</g>
	<g>
		<path style="fill:#313D4B;" d="M129.6,595.6c0.6-1,1.3-2.4,1.8-4c-3.6-0.9-7.2-2.9-10.5-5.6l5.8,10.6l-16.2,8.8l-2.1-3.8l1-0.6
			l-6.8-12.4l-1.2,0.7l-2-3.6l13.5-7.4c-0.9-1.1-1.8-2.1-2.6-3.2c0.6-0.9,1.6-2.9,2-4.1c3.1,4.3,6.5,8.4,10.1,11.4l10.4-5.7l2,3.7
			l-8.6,4.7c1.6,1,3.3,1.7,5,2.1l0.3,4c0.7-2,1.3-4.2,1.8-6.1l3.4,2c-0.7,3.6-1.9,8.1-3.3,10.7L129.6,595.6z M112.3,599.6l1.5-0.8
			l-6.8-12.4l-1.5,0.8L112.3,599.6z M109.5,584.9l6.8,12.4l1.5-0.8l-6.8-12.4L109.5,584.9z M121.8,594.4l-6.8-12.4l-1.4,0.8
			l6.8,12.4L121.8,594.4z M128.9,575.8c-3.9,0.3-8.3-0.3-11.4-1.3c0.2-1.1,0.4-3.2,0.4-4.4c2.9,1.3,6.7,1.8,9.9,1.5L128.9,575.8z"/>
		<path style="fill:#313D4B;" d="M130.1,622.8l-4.3-5.9l-2.6,1.8l-2.3-3.2l22.3-16.1l6.6,9.1L130.1,622.8z M130.8,617.3l5.5-4
			l-1.9-2.7l-5.5,4L130.8,617.3z M153,622.1l-2.8,2l4.2,5.8l-3,2.2l-1.5-2.1l-2.3,1.6l2,2.8l-3,2.2l-2-2.8l-6.3,4.6
			c-1.7,1.2-2.8,1.5-4.1,0.7c-1.3-0.7-2.5-2.3-4.1-4.4c0.9-0.8,1.9-2.3,2.5-3.4c1,1.4,2.1,3,2.4,3.5c0.3,0.5,0.6,0.5,1,0.2l6.3-4.5
			l-7.4-10.2l3-2.2l7.3,10.2l2.3-1.6l-6.7-9.3l3-2.2l4.1,5.6l2.8-2l-4.7-6.5l3-2.2l4.7,6.6l3.1-2.2l2.5,3.4l-3.1,2.2l4.7,6.5l-3,2.2
			L153,622.1z M137.3,624.5c-0.5,2.2-1.4,5.2-2.1,6.9l-4-1.7c0.8-1.6,1.8-4.6,2.5-6.9L137.3,624.5z M142.5,604.8l-5.1,3.7l1.9,2.7
			l5.1-3.7L142.5,604.8z"/>
		<path style="fill:#313D4B;" d="M152.6,653.4l-4.2,3.9l-2.4-2.6l4.1-3.9l-3.8-4.1l2.7-2.5l3.8,4.1l1.6-1.5l-3.1-3.3l9.5-8.8l3,3.3
			l1.4-1.3l-3.4-3.7l2.7-2.5l3.4,3.7l2.5-2.3l2.4,2.6l-2.5,2.3l3.5,3.8l-2.7,2.5l-3.5-3.8l-1.4,1.3l3.2,3.5l-9.5,8.8l-3.2-3.4
			l-1.6,1.5l3.7,4l-2.7,2.5L152.6,653.4z M168.4,672.2l-2.6,2.4l-13.2-14.2l2.6-2.5l5.2,5.6l3.9-3.6l-4.1-4.4l2.6-2.4l11.3,12.2
			l-2.6,2.5l-4.4-4.7l-3.9,3.6L168.4,672.2z M155.6,643.7l1.3,1.4l1.6-1.4l-1.3-1.4L155.6,643.7z M161.7,647.1l-1.4-1.5l-1.5,1.4
			l1.4,1.5L161.7,647.1z M159.2,640.3l1.3,1.4l1.6-1.4l-1.3-1.4L159.2,640.3z M165.3,643.7l-1.4-1.5l-1.5,1.4l1.4,1.5L165.3,643.7z
			 M164.7,654.3c1-1.8,2-4.8,2.8-7.7c2.4-0.6,5.3-1.6,7-2.3l1.8,3c-2.1,0.7-4.4,1.4-6.3,1.9c-0.6,2.4-1.4,5-2.1,6.5L164.7,654.3z
			 M180.2,651.6c-2.1,0.7-4.4,1.3-6.4,1.8c-0.5,2.4-1.2,5.1-1.9,6.6l-3.2-1.5c0.9-1.8,1.9-4.8,2.5-7.9c2.5-0.5,5.4-1.4,7.1-2.1
			L180.2,651.6z M172.8,663.1c0.9-1.9,1.8-5,2.4-8.1c2.5-0.5,5.5-1.3,7.3-1.9l1.8,3.1c-2.2,0.6-4.5,1.1-6.6,1.5
			c-0.4,2.5-1.1,5.3-1.7,6.9L172.8,663.1z M185.6,655.4l-12.3-13.2l2.6-2.4l12.3,13.2L185.6,655.4z"/>
		<path style="fill:#313D4B;" d="M185.6,679.6c0.4,1.4,1.1,4.6,1.2,5.5l-3.5,0.7c0.1-0.8,0-2.1,0-3.4l-4.2,5.1l-2.9-2.4l4.1-4.8
			c-2,0.5-4,0.9-5.6,0.8c0.1-1.1,0.1-2.8-0.1-3.8c2.4,0.3,5.6,0,8.2-0.8l-3.7-3.1l2.1-2.5l4.1,3.4l1.6-2l2.9,2.4l-1.6,2l3.4,2.8
			l-2.1,2.5l-3.4-2.8L185.6,679.6z M193.8,678.5c0-0.5,0.1-1.1,0-1.8c-8-5.8-9-6.6-10-6.9c0.2-0.5,0.7-1.7,0.9-2.5
			c0.4,0.2,0.8,0.3,1.4,0.4c0.3,0,1.1,0.1,1.9,0.1l-2.8-2.3l1.5-1.8l2.1,1.8l5.9-7.1l10.7,9l-1.5,1.8l-7.8-6.5l-0.6,0.7l6.9,5.8
			l-1.2,1.5l-6.9-5.8l-0.6,0.8l6.9,5.8l-1.2,1.5l-6.9-5.8l-0.7,0.8l8.4,7l-1.5,1.8l-2.3-1.9c0.1,1.5,0.3,3.4,0.2,4.5L193.8,678.5z
			 M198.3,692.8c-0.2,2.6-0.6,6.2-0.9,8.2l-3.5-1c0.2-0.6,0.3-1.3,0.4-2c-7.7-5.5-9.1-6.4-10.1-6.7c0.3-0.6,0.9-2.4,1.2-3.4
			c0.6,0.4,1.5,0.3,2.6,0.2c1.1-0.1,5-1,8.1-2.4l1.6,3.7c-2.3,0.8-4.9,1.4-7.3,1.7l4.5,3.3c0.1-0.8,0.2-1.7,0.3-2.5L198.3,692.8z
			 M198.3,683c-3.1,1.7-6.7,2.7-9.7,2.7c0-0.9-0.3-2.6-0.6-3.6c2.7,0.1,5.8-0.7,8.2-2.1L198.3,683z M193.7,673.1l1.2,0.4l-3.9-3.3
			c-0.8,0-1.6,0-2.5,0l5.2,3.9L193.7,673.1z M203.8,685.6c-0.8,2.8-0.6,6.3,0.4,9c-1,0.1-2.9,0.4-4,0.8c-0.7-2.7-0.9-6-0.4-8.8
			l-2.4-2l2.1-2.5L203.8,685.6z M211.2,684.7c-4,0.4-8.6-1.3-13.3-3.9c0.2-1,0.4-2.4,0.2-3.5c3.9,2.4,8.2,4.3,11.2,4.2L211.2,684.7z
			 M213.3,680.7c-3.5,0-7.7-1.5-11.3-3.2c0.1-1,0.1-2.4-0.1-3.4c3.1,1.8,7.1,3.4,9.8,3.5L213.3,680.7z M215.4,676.6
			c-3.3-0.3-7.4-1.7-10.5-3c0-1-0.1-2.3-0.3-3.4c2.8,1.3,6.8,2.9,9.3,3.1L215.4,676.6z"/>
		<path style="fill:#313D4B;" d="M583,678.1l14.4-11.9l2.3,2.8l-3.9,3.2c2.9,0.6,6.7,1.6,8.7,2.7l-1.1,3.7c-0.5-0.3-1.1-0.6-1.8-0.9
			c-7.1,7-8.2,8.1-8.7,9.1c-0.7-0.5-2.5-1.5-3.5-2.1c0.3-0.5,0.4-1.3,0.3-2.2c0-0.7-0.3-2.5-0.9-4.5l-3.5,2.9L583,678.1z
			 M598.1,676.5c-1.2-0.4-2.4-0.7-3.5-0.9l1.2-3.3l-3.3,2.8c0.4,1.9,0.7,4,0.8,5.9L598.1,676.5z M607.4,689.5c1.5-1.7,3-3.5,4.5-5.3
			l2.5,2.7c-4.1,4.9-8.5,10.2-11.7,14l-3.2-2.4c1.5-1.6,3.3-3.6,5.2-5.9l-3.1-3.8l-5,4.2l-2.4-2.8l5-4.2l-2-2.5l3.1-2.6l2,2.5l5-4.1
			l2.4,2.8l-5,4.1L607.4,689.5z M616.2,680.4l-3,2.5l-13.9-16.7l3-2.5L616.2,680.4z M605.9,656.9l17.8,21.4c1.4,1.7,1.8,2.8,1.2,4.2
			c-0.6,1.4-2.1,2.8-4.3,4.6c-0.8-0.7-2.5-1.7-3.7-2.2c1.5-1.2,3-2.4,3.5-2.8c0.5-0.4,0.5-0.7,0.1-1.2l-17.7-21.3L605.9,656.9z"/>
		<path style="fill:#313D4B;" d="M625.2,657.5c4.1,3.8,9.9,9.9,11.8,15.7c-1.1,0-3.4,0.6-4.4,1.1c-1.7-5.2-6.7-10.2-10.4-13.6
			l-8-7.5l9.2-9.8c-0.9-0.4-1.9-0.8-2.8-1.1l2.1-3.9c1.3,0.4,2.8,0.9,4.1,1.4l8.3-8.8l2.9,2.7l-17.9,19.1L625.2,657.5z M628.2,646.3
			c0.9,1.8,1.8,3.8,2.5,5.8l13.7,12.8l-2.8,2.9l-9.4-8.8c0.1,0.9,0.1,1.8,0.1,2.7c-1-0.5-3-1.2-4.1-1.5c0-3.8-1.7-8.5-3.7-11.7
			L628.2,646.3z M645,640.1l-2.3,2.5l8.6,8c1.6,1.5,2.1,2.6,1.7,4.1c-0.5,1.5-1.8,3-3.7,5.1c-1-0.7-2.7-1.5-4-1.9
			c1.3-1.3,2.7-2.7,3-3.1c0.4-0.4,0.4-0.7,0-1l-8.6-8l-6.4,6.8l-2.9-2.7l6.4-6.8l-3.5-3.2l2.9-3.1l3.5,3.2l2.3-2.5L645,640.1z
			 M637.2,650.8c2.5,0.5,5.4,1.2,7.3,1.9l-1.2,3.8c-1.8-0.8-4.9-1.7-7.4-2.2L637.2,650.8z"/>
		<path style="fill:#313D4B;" d="M666.9,630.9c1.6,1.2,2.4,2.1,2.3,3.5c-0.1,1.3-0.9,2.6-2.3,4.5c-1-0.6-2.8-1.3-4-1.5
			c0.8-1,1.6-2.1,1.8-2.4c0.3-0.3,0.2-0.6-0.2-0.9l-5.8-4.2l-2.2,3.1c3.2,2.7,6.4,5.9,8.2,9c-0.9,0.3-2.8,1.1-3.6,1.6
			c-2.6-4.7-8.4-9-12.6-12.1l-10.6-7.6l6.6-9.2L666.9,630.9z M643.4,623.1l3.4,2.4l2.1-2.8l-3.4-2.4L643.4,623.1z M666.8,606.6
			c3.4,3.5,5.8,7,7.2,10.5c2.2-0.3,4.3-1,6.2-2.1c0.1,1.2,0.7,3,1.1,4.1c-1.9,0.9-4,1.5-6.2,1.8c0.4,2,0.5,4,0.4,6.1
			c-0.9-0.1-2.5-0.1-3.6,0l2.4,1.7l-2.4,3.3l-26.1-18.9l9.7-13.4l5.6,4.1c1.5,1.1,2.1,2,1.7,3.6c-0.4,1.4-1.6,3.1-3.2,5.3
			c-1-0.5-2.5-0.9-3.6-1.1c1.1-1.4,2.4-3.1,2.7-3.6c0.3-0.5,0.3-0.7,0-0.9l-2.3-1.7l-4.9,6.8l6.9,5l6.1-8.4l0.3-0.6L666.8,606.6z
			 M655.6,627.5L652,625l-2.1,2.9l0.8,0.6c0.9,0.6,1.8,1.3,2.7,2L655.6,627.5z M671.5,626.8c0.2-1.8,0-3.7-0.4-5.7
			c-3.2-0.1-6.4-0.8-9.7-1.9l-0.1,0.2L671.5,626.8z M663.6,616.3c2,0.6,4.1,0.9,6.2,1c-0.8-1.8-1.9-3.5-3.2-5.2L663.6,616.3z"/>
		<path style="fill:#313D4B;" d="M678.8,570.3c1.3,1.8,2.3,3.7,2.9,5.7c1.8-1.3,3.5-2.9,5-4.8c0.3,1.2,1.2,3.1,1.9,4.1
			c-1.9,2.1-4,3.7-6.2,4.9c0.1,2.5-0.2,5.1-0.9,7.9c-0.4,0-1.1,0.1-1.8,0.2c1.7,1.5,3.3,3.1,4.4,4.4l-2.5,1.9c-1-1-2.3-2.2-3.8-3.4
			l-0.9,1.7l11.1,6.1c1.7,0.9,2.6,1.7,2.5,3.2c0,1.4-0.7,2.9-1.8,4.8c-1.1-0.5-2.9-0.8-4.1-0.9c0.7-1.1,1.4-2.4,1.6-2.8
			c0.2-0.4,0.2-0.6-0.2-0.8l-6.7-3.7c1.7,2.4,3.1,4.9,3.7,7.1c-1.2-0.3-3.2-0.3-4.6-0.3c-0.6-2.6-2.2-5.6-4-8l-2.2,3.9l-3.3-1.8
			l4-7.2c-2,1.2-4.5,2.9-6.4,4.4l-1.1-3.7c0.7-0.6,1.5-1.3,2.4-1.9c-0.2-1-0.5-2.1-0.9-3.1l-4.1,7.6l-3.1-1.7l5.6-10.2l0.2-0.6
			l2.8-1.6c1.2,2,2.1,4.9,2.7,7.4c1-0.7,1.9-1.2,2.6-1.5l0.8,2.4l0.8-1.5l0.1-0.6l2-1.9l0.7,0.5c0.4-1.6,0.6-3.2,0.7-4.6
			c-1.2,0.4-2.5,0.7-3.8,0.8c0.2,0.7,0.4,1.5,0.6,2.2c-1,0.4-2.8,1.3-3.8,1.9c-0.4-3.4-2-7.3-4.2-10.1l2.9-3
			c0.6,0.8,1.1,1.5,1.6,2.4l5.1-9.3l3.1,1.7L678.8,570.3z M674,579.1c1.4-0.2,2.8-0.5,4.1-1.1c-0.3-1.3-0.8-2.5-1.5-3.5L674,579.1z
			 M690.9,575c0,0,0.9,0.6,1.3,0.9c5.2,3.5,7.3,5.4,7.8,6.9c0.3,1.1,0.2,1.9-0.2,2.9c-0.3,0.8-1,2.1-1.9,3.6c-1.1-0.5-2.8-0.9-4-0.9
			c0.7-1.1,1.4-2.1,1.6-2.6c0.2-0.4,0.3-0.7,0.2-1.2c-0.2-0.7-1.3-1.8-4-3.8l-2,3.7c3.2,3.1,5,7,4.2,13.1c-1.1-0.1-3,0.2-4.1,0.6
			c0.7-4.5-0.3-7.5-2.2-9.8l-2.1,3.8l-3.1-1.7l2.5-4.6c-0.8-0.7-1.7-1.3-2.6-1.9l2.1-3.7c0.9,0.6,1.8,1.2,2.6,1.9L690.9,575z"/>
	</g>
	<path style="fill:#313D4B;" d="M757,451c0,24.7-18.7,42-42.9,42H89.3C65.1,493,44,475.7,44,451v-69.9c0-24.7,21.1-45.1,45.3-45.1
		h624.8c24.2,0,42.9,20.4,42.9,45.1V451z"/>
	<g>
		<path style="fill:#FFFFFF;" d="M171.4,387.7c-1.9,0.6-3.3,0.4-4.1-0.5c-0.8-0.8-1.1-1.9-1.1-3.4V372c-0.1-1.7,0.1-2.9,0.8-3.6
			c0.7-0.7,2.2-1.4,4.3-2.2l24.1-5.7c2-0.6,3.5-0.5,4.3,0.2c0.8,0.7,1.1,2,1,4v11.1c0,1.9-0.4,3.4-1.1,4.2c-0.8,0.8-2.3,1.3-4.2,1.9
			L171.4,387.7z M167.4,412.7c-0.8-0.8-1.1-1.8-1.1-3.3v-11.6c0-1.8,0.2-3.3,1.1-4.1c0.7-0.8,2.2-1.6,4.1-2l24.1-5.8
			c2.2-0.2,3.6,0,4.2,0.6c0.6,0.8,1,2.2,1,4.1v10.6c0,2.3-0.2,4-0.6,4.9s-1.6,1.6-3.5,1.9l-2.3,0.5v53.5c0,1.6-0.2,2.8-0.8,3.6
			c-0.6,0.8-1.9,1.1-3.9,1.1h-10.2c-1.8,0-3-0.2-3.7-1.1c-0.7-0.8-1.1-2-1.1-3.6v-49.4l-3.1,0.6
			C169.6,413.7,168.1,413.6,167.4,412.7z M206.2,406.3c-0.7-0.7-1.1-1.9-1.1-3.7v-9.4c0-2.2,0.4-3.7,1.1-4.5
			c0.6-0.7,1.9-1.1,3.9-1.1h57.1c2,0,3.5,0.4,4.2,1.1c0.6,0.7,1,2.3,1,4.5v9.4c0,1.8-0.4,3-1,3.7c-0.7,0.8-2.2,1.3-4.2,1.3h-8.9
			v55.1c0,1.4-0.4,2.5-1,3.1c-0.6,0.6-2,0.7-4.1,0.7h-24.9c-1.8,0-3.1-0.1-3.9-0.7c-0.7-0.6-1.1-1.7-1.1-3.1v-11.1
			c0-1.8,0.4-3.1,1.1-3.7c0.7-0.6,2-1,3.9-1h5.7c1.6,0,2.4-0.7,2.4-2.5v-36.8H210C208.1,407.7,206.8,407.2,206.2,406.3z
			 M208.9,380.6c-0.7-0.8-1.1-2-1.1-3.9v-9.4c0-2.2,0.4-3.7,1.1-4.5c0.7-0.7,2-1.1,3.9-1.1h51.5c2,0,3.4,0.4,4.1,1.1
			c0.7,0.7,1.1,2.3,1.1,4.5v9.4c0,1.8-0.4,3-1.1,3.9c-0.7,0.7-2,1.2-4.1,1.2h-51.5C211,381.8,209.7,381.3,208.9,380.6z"/>
		<path style="fill:#FFFFFF;" d="M285.4,392.7c-0.7-0.8-1.1-1.9-1.1-3.7v-1.9c0-2.2,0.4-3.7,1.1-4.5c0.7-0.7,1.9-1.1,3.9-1.1h17.2
			v-3h-14.7c-1.3-0.1-2.4-0.5-3.3-1.3c-0.8-0.8-1.3-1.7-1.3-3v-3.7c0-1.3,0.5-2.3,1.3-3.1c0.8-0.8,1.9-1.1,3.3-1.2H318
			c2,0,3.5-0.2,4.2-0.7c0.8-0.4,1.2-1.1,1.2-2c-0.1-1,0.4-1.9,1.2-2.9c0.8-1,1.9-1.4,3-1.4h10.1c1.3,0,2.4,0.5,3.3,1.4
			c0.8,1,1.2,2,1.2,3.4v1.8c0.1,4.7-1.1,7.9-3.6,10c-2.5,1.9-7,2.9-13.5,2.9h-1.7v3h15.4c2,0,3.4,0.4,4.1,1.1
			c0.7,0.7,1.1,2.3,1.1,4.5v1.9c0,1.8-0.4,2.9-1.1,3.7c-0.7,0.8-2,1.3-4.1,1.3h-15.4v3h11.8c2.2,0,3.9,0.5,5.2,1.3s1.8,2.8,1.8,5.5
			v25.4c0,2.4-0.5,4.3-1.7,5.4c-1.3,1.1-3,1.7-5.2,1.7h-11.9v2.5h15.7c2,0,3.4,0.4,4,1.1c0.6,0.7,1.1,2.2,1.2,4.5v1.9
			c0,1.7-0.4,2.9-1.1,3.7c-0.7,0.8-2,1.3-4.1,1.3h-15.7v2.5h16.4c2,0,3.4,0.4,4,1.1c0.6,0.7,1.1,2.2,1.2,4.5v1.9
			c0,1.7-0.4,3-1.1,3.9c-0.7,0.8-2,1.2-4.1,1.2h-50.1c-1.9,0-3.1-0.4-3.9-1.2c-0.7-0.8-1.1-2.2-1.1-3.9v-1.9c0-2.3,0.4-3.7,1.1-4.5
			c0.7-0.7,1.9-1.1,3.9-1.1h16.7v-2.5h-16c-1.9,0-3.3-0.5-3.9-1.3c-0.7-0.8-1.1-2-1.1-3.7v-1.9c0-2.3,0.4-3.7,1.1-4.5
			c0.6-0.7,1.9-1.1,3.9-1.1h16v-2.5H294c-2.4,0-4.3-0.6-5.4-1.7c-1.2-1.1-1.8-2.9-1.8-5.3v-25.8c0-2.5,0.6-4.3,1.7-5.3
			c1.1-0.8,3-1.3,5.4-1.3h12.5v-3h-17.2C287.3,394.1,286.1,393.6,285.4,392.7z M302.5,411.2h4v-3h-4V411.2z M302.5,425.2h4v-3h-4
			V425.2z M327.3,408.1h-3.9v3h3.9V408.1z M327.3,422.2h-3.9v3h3.9V422.2z M367,360.6c1.2,0,2.3,0.5,3.1,1.3
			c0.8,1.1,1.3,2.2,1.3,3.5v18.7h17.9c2,0,3.4,0.4,4.1,1.1s1.1,2.2,1.1,4.5v73.2c0,1.4-0.4,2.5-1,3.1c-0.7,0.6-2,0.7-4.1,0.7h-14.3
			c-1.9,0-3.1-0.1-3.9-0.7c-0.7-0.6-1.1-1.7-1.1-3.1v-11.1c0-1.8,0.4-3.1,1.1-3.7c0.7-0.6,1.9-1,3.9-1c1.6,0,2.3-0.7,2.3-2.5v-40.8
			h-6v17.7c0,12.2-2.5,22.6-7.6,31.5c-5.1,9-9.8,13.6-13.8,13.6c-1.3-0.1-2.4-0.5-3.1-1.3c-0.8-0.8-1.3-1.8-1.3-3.1V449
			c0-1.3,0.4-2.3,1.1-2.9c0.5-0.7,1.6-2.3,3.1-4.6c1.4-2.2,2.5-5.2,3.4-9.2c0.8-3.9,1.3-9.5,1.2-17v-11.7h-3.9
			c-1.9,0-3.3-0.5-3.9-1.3c-0.7-0.8-1.1-1.9-1.1-3.7v-9c0-2.3,0.4-3.7,1.1-4.5c0.6-0.7,1.9-1.1,3.9-1.1h3.9v-18.7
			c0-1.3,0.5-2.4,1.3-3.5c0.8-0.8,1.8-1.3,3-1.3H367z"/>
		<path style="fill:#FFFFFF;" d="M407.9,381.4c-0.7-0.7-1-1.9-1-3.7v-3.3c0-2.3,0.2-3.7,1-4.5c0.7-0.7,2-1.1,4-1.1h35.4v-3.5
			c0.1-1.2,0.6-2.3,1.6-3.3c0.8-1,2.2-1.3,3.6-1.3h15.2c1.4,0,2.6,0.4,3.5,1.3s1.2,2,1.2,3.3v3.5h35.2c2,0,3.5,0.4,4.2,1.1
			c0.7,0.7,1,2.2,1,4.5v3.3c0,1.8-0.2,3-1,3.7c-0.7,0.8-2.2,1.3-4.2,1.3h-35.2v3.4h26.9c2.5,0,4.3,0.4,5.5,1.4
			c1.1,1.1,1.7,3,1.7,5.4v35.2c0,2.6-0.6,4.3-1.7,5.2c-1.1,1-2.9,1.4-5.4,1.4h-27v3.3h35.2c2,0,3.5,0.4,4.2,1.1c0.7,0.7,1,2.3,1,4.5
			v3.3c0,1.8-0.2,3-1,3.9c-0.7,0.8-2.2,1.2-4.2,1.2h-35.2V462c0,1.3-0.4,2.4-1.2,3.4s-2,1.3-3.5,1.3h-15.2c-1.4,0-2.8-0.4-3.6-1.3
			c-1-1-1.4-2-1.6-3.4v-10.1h-35.4c-1.9,0-3.3-0.4-4-1.2c-0.7-0.8-1-2-1-3.9v-3.3c0-2.2,0.2-3.7,1-4.5c0.7-0.7,2-1.1,4-1.1h35.4
			v-3.3h-26.9c-2.3,0-3.9-0.5-5.2-1.3c-1.3-0.8-1.9-2.6-1.9-5.5v-34.8c0-2.4,0.6-4.3,1.9-5.4c1.2-1.1,2.8-1.6,5.1-1.6h27v-3.4h-35.4
			C410,382.7,408.7,382.3,407.9,381.4z M438.4,403.5h8.9V400h-8.9V403.5z M447.3,420.9v-3.6h-8.9v3.6H447.3z M472.4,400v3.5h8.9V400
			H472.4z M481.3,417.3h-8.9v3.6h8.9V417.3z"/>
		<path style="fill:#FFFFFF;" d="M528.3,420.5c-0.7-0.8-1-2-1-3.9v-4.2c0-2.2,0.2-3.7,1-4.5c0.7-0.7,2-1.1,4-1.1h35.4v-3h-27.5
			c-1.9,0-3.1-0.5-3.9-1.3c-0.7-0.8-1.1-1.9-1.1-3.7v-4.2c0-2.3,0.4-3.7,1.1-4.5c0.7-0.7,1.9-1.1,3.9-1.1h27.5v-3h-31.2
			c-1.9,0-3.3-0.5-4-1.3c-0.7-0.8-1.1-2-1.1-3.7v-4.3c0-2.2,0.4-3.7,1.1-4.5c0.7-0.7,2-1,4-1h6.5l-2.4-6c-0.6-1.3-0.5-2.4,0.4-3.4
			c0.8-0.8,2.3-1.3,4.3-1.2h11.1c1.8-0.1,3.1,0.2,3.7,0.7c0.6,0.7,1.6,2.2,2.5,4.2l2.4,5.7h30.3l2.4-5.7c1-2,1.9-3.5,2.5-4.2
			c0.6-0.5,1.9-0.8,3.7-0.7h11.1c2-0.1,3.5,0.4,4.3,1.2c0.8,1,1,2,0.4,3.4l-2.4,6h6.3c2,0,3.5,0.2,4.2,1c0.6,0.7,1,2.3,1,4.5v4.3
			c0,1.7-0.4,2.9-1,3.7c-0.7,0.8-2.2,1.3-4.2,1.3h-30.9v3H620c2,0,3.4,0.4,4.1,1.1c0.7,0.7,1.1,2.2,1.1,4.5v4.2
			c0,1.8-0.4,2.9-1.1,3.7c-0.7,0.8-2,1.3-4.1,1.3h-27.2v3h35.2c2,0,3.5,0.4,4.2,1.1c0.7,0.7,1,2.3,1,4.5v4.2c0,1.8-0.2,3-1,3.9
			c-0.7,0.8-2.2,1.2-4.2,1.2h-34.4v3.9h34.9c2,0,3.5,0.4,4.2,1.1c0.6,0.8,1,2.2,1,4v4.2c0,2.2-0.4,3.7-1,4.5
			c-0.7,0.7-2.2,1.1-4.2,1.1h-26.5c5.5,4.6,14.7,6.7,27.2,6.7c1.3,0.1,2.4,0.5,3.3,1.3c0.7,0.8,1.2,1.8,1.2,3v10.6
			c0,1.3-0.5,2.3-1.2,3.1c-0.8,0.8-1.9,1.2-3.3,1.3c-17,0-31.3-4.9-43.2-14.4c-2.2-1.6-4-3.5-5.8-5.5c-1.7,2-3.5,4-5.7,5.5
			c-11.8,9.5-26.1,14.4-43.1,14.4c-1.3-0.1-2.4-0.5-3.3-1.3c-0.7-0.8-1.2-1.8-1.2-3.1v-10.6c0-1.2,0.5-2.2,1.2-3
			c0.8-0.8,1.9-1.2,3.3-1.3c12.5,0,21.6-2.2,27.1-6.7h-25.8c-1.8,0-3.1-0.4-3.9-1.1c-0.7-0.7-1.1-2.3-1.1-4.5v-4.2
			c0-1.8,0.4-3.1,1.1-4c0.7-0.7,2-1.1,3.9-1.1h34.1v-3.9h-34.4C530.4,421.8,529.1,421.4,528.3,420.5z"/>
	</g>
	<g>
		<g>
			<path style="fill:#FFFFFF;stroke:#1DAADB;stroke-width:3;stroke-miterlimit:10;" d="M440.4,553.4c0,21.3-17.3,38.6-38.6,38.6
				c-21.3,0-38.6-17.3-38.6-38.6c0-21.3,17.3-38.6,38.6-38.6C423.1,514.8,440.4,532.1,440.4,553.4z"/>
			<path style="fill:#FFFFFF;stroke:#1DAADB;stroke-width:3;stroke-miterlimit:10;" d="M360.3,553.4c0-22.9,18.6-41.5,41.5-41.5
				c22.9,0,41.5,18.6,41.5,41.5c0,22.9-18.6,41.5-41.5,41.5C378.9,594.9,360.3,576.3,360.3,553.4z M366.1,553.4
				c0,19.7,16,35.7,35.7,35.7c19.7,0,35.7-16,35.7-35.7c0-19.7-16-35.7-35.7-35.7C382.1,517.7,366.1,533.7,366.1,553.4z"/>
		</g>
		<g>
			<path style="fill:#FFFFFF;stroke:#1DAADB;stroke-width:3;stroke-miterlimit:10;" d="M426,585.9c0,18,14.6,32.6,32.6,32.6
				c18,0,32.6-14.6,32.6-32.6c0-18-14.6-32.6-32.6-32.6C440.6,553.3,426,567.9,426,585.9z"/>
			<path style="fill:#FFFFFF;stroke:#1DAADB;stroke-width:3;stroke-miterlimit:10;" d="M423.1,585.9c0-19.6,15.9-35.5,35.5-35.5
				c19.6,0,35.5,15.9,35.5,35.5c0,19.6-15.9,35.5-35.5,35.5C439,621.5,423.1,605.5,423.1,585.9z M428.9,585.9
				c0,16.4,13.3,29.7,29.7,29.7c16.4,0,29.7-13.3,29.7-29.7c0-16.4-13.3-29.7-29.7-29.7C442.2,556.2,428.9,569.5,428.9,585.9z"/>
		</g>
		<g>
			<path style="fill:#FFFFFF;stroke:#1DAADB;stroke-width:3;stroke-miterlimit:10;" d="M414.8,528.2c1.1,0.6,2,1.4,3,2.1
				C405,525,390,529.7,382.9,542c-7.1,12.3-3.7,27.6,7.3,36c-1.1-0.5-2.2-0.9-3.3-1.5c-13.3-7.7-17.9-24.8-10.2-38.1
				C384.4,525.1,401.5,520.5,414.8,528.2z"/>
		</g>
		<g>
			<path style="fill:#FFFFFF;stroke:#1DAADB;stroke-width:3;stroke-miterlimit:10;" d="M411.5,537.1c0,11.5,9.3,20.7,20.7,20.7
				c11.5,0,20.7-9.3,20.7-20.7c0-11.5-9.3-20.7-20.7-20.7C420.8,516.4,411.5,525.7,411.5,537.1z"/>
			<path style="fill:#FFFFFF;stroke:#1DAADB;stroke-width:3;stroke-miterlimit:10;" d="M408.6,537.1c0-13,10.6-23.6,23.6-23.6
				c13,0,23.6,10.6,23.6,23.6s-10.6,23.6-23.6,23.6C419.2,560.8,408.6,550.2,408.6,537.1z M414.4,537.1c0,9.8,8,17.8,17.8,17.8
				c9.8,0,17.8-8,17.8-17.8s-8-17.8-17.8-17.8C422.4,519.3,414.4,527.3,414.4,537.1z"/>
		</g>
		<g>
			<path style="fill:#FFFFFF;stroke:#1DAADB;stroke-width:3;stroke-miterlimit:10;" d="M472.9,628.8c0,23.7,19.2,42.8,42.8,42.8
				c23.7,0,42.8-19.2,42.8-42.8c0-23.7-19.2-42.8-42.8-42.8C492.1,585.9,472.9,605.1,472.9,628.8z"/>
			<path style="fill:#FFFFFF;stroke:#1DAADB;stroke-width:3;stroke-miterlimit:10;" d="M470,628.8c0-25.2,20.5-45.7,45.7-45.7
				c25.2,0,45.7,20.5,45.7,45.7c0,25.2-20.5,45.7-45.7,45.7C490.5,674.5,470,654,470,628.8z M475.8,628.8c0,22,17.9,39.9,39.9,39.9
				c22,0,39.9-17.9,39.9-39.9c0-22-17.9-39.9-39.9-39.9C493.7,588.8,475.8,606.7,475.8,628.8z"/>
		</g>
		<path style="fill:#FFFFFF;stroke:#1DAADB;stroke-width:3;stroke-miterlimit:10;" d="M476.1,568.3c0,15.9,12.9,28.8,28.8,28.8
			c15.9,0,28.8-12.9,28.8-28.8c0-15.9-12.9-28.8-28.8-28.8C489,539.6,476.1,552.4,476.1,568.3z"/>
		<path style="fill:#FFFFFF;stroke:#1DAADB;stroke-width:3;stroke-miterlimit:10;" d="M473.2,568.3c0-17.5,14.2-31.7,31.7-31.7
			c17.5,0,31.7,14.2,31.7,31.7c0,17.5-14.2,31.7-31.7,31.7C487.4,600,473.2,585.8,473.2,568.3z M479,568.3
			c0,14.3,11.6,25.9,25.9,25.9c14.3,0,25.9-11.6,25.9-25.9c0-14.3-11.6-25.9-25.9-25.9C490.6,542.5,479,554.1,479,568.3z"/>
		<g>
			<path style="fill:#FFFFFF;stroke:#1DAADB;stroke-width:3;stroke-miterlimit:10;" d="M535.4,601c1.2,0.7,2.3,1.6,3.4,2.5
				c-14.7-6.1-32.1-0.7-40.3,13.5c-8.2,14.2-4.2,31.9,8.4,41.6c-1.3-0.5-2.6-1-3.8-1.7c-15.4-8.9-20.7-28.7-11.8-44.1
				C500.2,597.4,520,592.1,535.4,601z"/>
		</g>
		<g>
			<path style="fill:#FFFFFF;stroke:#1DAADB;stroke-width:3;stroke-miterlimit:10;" d="M356.1,587c0,23.7-19.2,43-42.9,43
				c-23.7,0-42.9-19.2-42.9-43s19.2-42.9,42.9-42.9C336.9,544.1,356.1,563.3,356.1,587z"/>
			<path style="fill:#FFFFFF;stroke:#1DAADB;stroke-width:3;stroke-miterlimit:10;" d="M267.3,587c0-25.3,20.6-45.8,45.8-45.8
				c25.3,0,45.8,20.6,45.8,45.8c0,25.3-20.6,45.9-45.8,45.9C287.9,632.9,267.3,612.3,267.3,587z M273.1,587c0,22.1,18,40,40,40
				c22.1,0,40-18,40-40c0-22.1-18-40-40-40C291.1,547,273.1,564.9,273.1,587z"/>
		</g>
		<g>
			<path style="fill:#FFFFFF;stroke:#1DAADB;stroke-width:3;stroke-miterlimit:10;" d="M323.1,649.6c0,17.2-13.9,31.1-31.1,31.1
				c-17.2,0-31.1-13.9-31.1-31.1c0-17.2,13.9-31.1,31.1-31.1C309.2,618.5,323.1,632.5,323.1,649.6z"/>
			<path style="fill:#FFFFFF;stroke:#1DAADB;stroke-width:3;stroke-miterlimit:10;" d="M258.1,649.6c0-18.7,15.3-34,34-34
				c18.7,0,34,15.3,34,34c0,18.7-15.3,34-34,34C273.3,683.6,258.1,668.4,258.1,649.6z M263.9,649.6c0,15.5,12.7,28.2,28.2,28.2
				s28.2-12.6,28.2-28.2c0-15.5-12.6-28.2-28.2-28.2S263.9,634.1,263.9,649.6z"/>
		</g>
		<g>
			<path style="fill:#FFFFFF;stroke:#1DAADB;stroke-width:3;stroke-miterlimit:10;" d="M322.2,560c1.1,0.6,2,1.4,3,2.1
				c-12.8-5.3-28-0.6-35.1,11.8c-7.1,12.3-3.7,27.8,7.3,36.3c-1.1-0.5-2.2-0.9-3.3-1.5c-13.4-7.7-18-25-10.3-38.4
				C291.5,556.9,308.8,552.3,322.2,560z"/>
		</g>
		<g>
			<path style="fill:#FFFFFF;stroke:#1DAADB;stroke-width:3;stroke-miterlimit:10;" d="M274.9,585.1c0,9.3-7.5,16.7-16.7,16.7
				c-9.2,0-16.7-7.5-16.7-16.7c0-9.2,7.5-16.7,16.7-16.7C267.4,568.3,274.9,575.8,274.9,585.1z"/>
			<path style="fill:#FFFFFF;stroke:#1DAADB;stroke-width:3;stroke-miterlimit:10;" d="M238.5,585.1c0-10.8,8.8-19.6,19.6-19.6
				c10.8,0,19.6,8.8,19.6,19.6c0,10.8-8.8,19.6-19.6,19.6C247.3,604.7,238.5,595.9,238.5,585.1z M244.3,585.1
				c0,7.6,6.2,13.8,13.8,13.8c7.6,0,13.8-6.2,13.8-13.8c0-7.6-6.2-13.8-13.8-13.8C250.5,571.2,244.3,577.4,244.3,585.1z"/>
		</g>
		<g>
			<path style="fill:#FFFFFF;stroke:#1DAADB;stroke-width:3;stroke-miterlimit:10;" d="M305.1,560c0,13.9,11.2,25.1,25.1,25.1
				c13.9,0,25.1-11.2,25.1-25.1c0-13.9-11.2-25.1-25.1-25.1C316.3,534.9,305.1,546.1,305.1,560z"/>
			<path style="fill:#FFFFFF;stroke:#1DAADB;stroke-width:3;stroke-miterlimit:10;" d="M302.2,560c0-15.4,12.6-28,28-28
				c15.4,0,28,12.6,28,28c0,15.4-12.6,28-28,28C314.7,588,302.2,575.4,302.2,560z M308,560c0,12.2,10,22.2,22.2,22.2
				c12.2,0,22.2-10,22.2-22.2c0-12.2-10-22.2-22.2-22.2C317.9,537.8,308,547.7,308,560z"/>
		</g>
		<g>
			<path style="fill:#FFFFFF;stroke:#1DAADB;stroke-width:3;stroke-miterlimit:10;" d="M466.6,564.5c0.7,0.4,1.3,0.9,1.9,1.4
				c-8.3-3.5-18.2-0.4-22.8,7.7c-4.6,8-2.4,18.1,4.8,23.6c-0.7-0.3-1.5-0.6-2.2-1c-8.7-5-11.7-16.3-6.7-25
				C446.7,562.5,457.9,559.4,466.6,564.5z"/>
		</g>
		<g>
			<path style="fill:#FFFFFF;stroke:#1DAADB;stroke-width:3;stroke-miterlimit:10;" d="M302,630.5c0.8,0.5,1.5,1,2.2,1.6
				c-9.7-4-21.1-0.4-26.5,8.9c-5.4,9.3-2.8,21,5.5,27.4c-0.8-0.4-1.7-0.7-2.5-1.1c-10.1-5.9-13.6-18.8-7.8-29
				C278.9,628.2,291.9,624.7,302,630.5z"/>
		</g>
		<g>
			<path style="fill:#FFFFFF;stroke:#1DAADB;stroke-width:3;stroke-miterlimit:10;" d="M340.1,520.2c0,8.1,6.6,14.7,14.7,14.7
				c8.1,0,14.7-6.6,14.7-14.7c0-8.1-6.6-14.7-14.7-14.7C346.6,505.5,340.1,512.1,340.1,520.2z"/>
			<path style="fill:#FFFFFF;stroke:#1DAADB;stroke-width:3;stroke-miterlimit:10;" d="M337.2,520.2c0-9.7,7.9-17.6,17.6-17.6
				c9.7,0,17.6,7.9,17.6,17.6c0,9.7-7.9,17.6-17.6,17.6C345,537.8,337.2,529.9,337.2,520.2z M343,520.2c0,6.5,5.3,11.8,11.8,11.8
				c6.5,0,11.8-5.3,11.8-11.8c0-6.5-5.3-11.8-11.8-11.8C348.2,508.4,343,513.7,343,520.2z"/>
		</g>
		<g>
			<path style="fill:#FFFFFF;stroke:#1DAADB;stroke-width:3;stroke-miterlimit:10;" d="M266.5,533.7c0,5.7,4.6,10.4,10.4,10.4
				c5.7,0,10.4-4.6,10.4-10.4c0-5.7-4.6-10.4-10.4-10.4C271.1,523.3,266.5,528,266.5,533.7z"/>
			<path style="fill:#FFFFFF;stroke:#1DAADB;stroke-width:3;stroke-miterlimit:10;" d="M263.6,533.7c0-7.3,5.9-13.3,13.3-13.3
				c7.3,0,13.3,5.9,13.3,13.3c0,7.3-6,13.3-13.3,13.3C269.5,547,263.6,541,263.6,533.7z M269.4,533.7c0,4.1,3.4,7.5,7.5,7.5
				c4.1,0,7.5-3.4,7.5-7.5c0-4.1-3.4-7.5-7.5-7.5C272.7,526.2,269.4,529.6,269.4,533.7z"/>
		</g>
		<g>
			<path style="fill:#FFFFFF;stroke:#1DAADB;stroke-width:3;stroke-miterlimit:10;" d="M453.9,512.7c0,7.8,6.3,14.1,14.1,14.1
				c7.8,0,14.1-6.3,14.1-14.1c0-7.8-6.3-14.1-14.1-14.1C460.2,498.6,453.9,504.9,453.9,512.7z"/>
			<path style="fill:#FFFFFF;stroke:#1DAADB;stroke-width:3;stroke-miterlimit:10;" d="M451,512.7c0-9.4,7.6-17,17-17
				c9.4,0,17,7.6,17,17c0,9.4-7.6,17-17,17C458.6,529.7,451,522.1,451,512.7z M456.8,512.7c0,6.2,5,11.2,11.2,11.2
				c6.2,0,11.2-5,11.2-11.2c0-6.2-5-11.2-11.2-11.2C461.8,501.5,456.8,506.5,456.8,512.7z"/>
		</g>
		<g>
			<path style="fill:#FFFFFF;stroke:#1DAADB;stroke-width:3;stroke-miterlimit:10;" d="M308.5,634.8c-0.5,0-1.1,0.1-1.6,0.1
				c-4.2,0-8.3-1.5-11.5-4.3l-8.9-7.6c-3.6-3.1-5.8-7.4-6.2-12.2c-0.4-4.8,1.1-9.4,4.2-13c3.4-4,8.4-6.3,13.6-6.3
				c4.3,0,8.4,1.5,11.6,4.3l8.8,7.6c4.4,3.7,6.6,9.2,6.2,14.6c0.4-1.7,0.8-3.4,1.2-5.3c9.6-42.6,55.6-53.9,78.5-53.9
				c23,0,69,11.3,78.5,53.9c0.4,1.8,0.8,3.6,1.2,5.2c-0.3-5.4,1.9-10.9,6.2-14.6l8.9-7.6c3.2-2.8,7.4-4.3,11.6-4.3
				c5.2,0,10.2,2.3,13.6,6.3c3.1,3.6,4.6,8.3,4.2,13c-0.4,4.8-2.6,9.1-6.2,12.2l-8.8,7.6c-3.2,2.8-7.3,4.3-11.6,4.3
				c-0.5,0-1.1,0-1.6-0.1c21.2,10.7,22.6,35.8,22.7,37.3v48.1h-12.9c-0.8,4.7-2.8,10.4-7.4,15.1c-5.1,5.2-12.1,7.9-21,7.9
				c-10.5,0-18.5-3-23.8-8.9c-4-4.4-5.6-9.6-6.2-14H357c-0.6,4.4-2.2,9.6-6.2,14c-5.3,5.9-13.3,8.9-23.8,8.9c-8.8,0-15.9-2.6-21-7.9
				c-4.5-4.6-6.5-10.4-7.4-15.1h-12.9l0-48.7C286.4,661.4,291.9,643.3,308.5,634.8z"/>
		</g>
		<g>
			<g>
				<g>
					<polygon style="fill:#FFFFFF;stroke:#1DAADB;stroke-width:3;stroke-miterlimit:10;" points="480.9,641.3 500.7,622 
						498.3,618.5 478.8,632.2 					"/>
				</g>
				<g>
					<path style="fill:#FFFFFF;stroke:#1DAADB;stroke-width:3;stroke-miterlimit:10;" d="M493.8,624.1c3.9,4.6,10.8,5.1,15.4,1.2
						l8.9-7.6c4.6-3.9,5.1-10.9,1.2-15.5l0,0c-3.9-4.6-10.9-5.1-15.5-1.2l-8.8,7.6C490.4,612.6,489.9,619.5,493.8,624.1L493.8,624.1
						z"/>
				</g>
			</g>
			<g>
				<g>
					<polygon style="fill:#FFFFFF;stroke:#1DAADB;stroke-width:3;stroke-miterlimit:10;" points="328.2,641.3 308.5,622 
						310.9,618.5 330.4,632.2 					"/>
				</g>
				<g>
					<path style="fill:#FFFFFF;stroke:#1DAADB;stroke-width:3;stroke-miterlimit:10;" d="M315.3,624.1c-3.9,4.6-10.8,5.1-15.4,1.2
						l-8.9-7.6c-4.6-3.9-5.1-10.9-1.2-15.5l0,0c3.9-4.6,10.8-5.1,15.4-1.2l8.9,7.6C318.7,612.6,319.3,619.5,315.3,624.1L315.3,624.1
						z"/>
				</g>
			</g>
		</g>
		<g>
			<path style="fill:#FFFFFF;stroke:#1DAADB;stroke-width:3;stroke-miterlimit:10;" d="M488.8,659.5l0.4,0
				C489.2,659.5,489.2,660.2,488.8,659.5z"/>
			<polygon style="fill:#FFFFFF;stroke:#1DAADB;stroke-width:3;stroke-miterlimit:10;" points="489.1,662.7 491.9,662.7 
				492.1,656.9 484.2,656 487,662.4 			"/>
		</g>
		<path style="fill:#FFFFFF;stroke:#1DAADB;stroke-width:3;stroke-miterlimit:10;" d="M404.6,572.8c0,0,55.4,0,65,43.1
			c6.6,29.4,8.7,36.1,9.4,37.3l-74.4-8l-74.4,8c0.7-1.3,2.8-7.9,9.4-37.3C349.2,572.8,404.6,572.8,404.6,572.8z"/>
		<path style="fill:#FFFFFF;stroke:#1DAADB;stroke-width:3;stroke-miterlimit:10;" d="M404.6,651l-73.8,7.9l-9.9,0.8l4.1-9.2
			c0.3-0.6,2-5.3,8.9-36c10.6-47,70.1-47.6,70.7-47.6c0.6,0,60.1,0.5,70.7,47.6c6.9,30.7,8.6,35.4,8.8,35.9l5.1,9.7L404.6,651z
			 M345.2,617.1c-3.3,14.8-5.5,23.8-7,29.3l66.3-7.1l66.3,7.1c-1.5-5.6-3.6-14.6-7-29.4c-8.5-38-57.3-38.5-59.4-38.5
			C404.1,578.6,353.8,579,345.2,617.1z"/>
		<g>
			<path style="fill:#FFFFFF;stroke:#1DAADB;stroke-width:3;stroke-miterlimit:10;" d="M320.3,659.5c-0.4,0.7-0.4,0-0.4,0
				L320.3,659.5z"/>
			<polygon style="fill:#FFFFFF;stroke:#1DAADB;stroke-width:3;stroke-miterlimit:10;" points="320.1,662.7 321.9,662.7 325.4,656 
				317.4,656.9 317.1,659.5 317.1,662.4 			"/>
		</g>
		<path style="fill:#FFFFFF;stroke:#1DAADB;stroke-width:3;stroke-miterlimit:10;" d="M315.8,639.8c22-7.8,70.4-8.4,84.7-8.4l4,0
			l4.1,0c14.3,0,62.8,0.6,84.7,8.4c20.9,7.4,22.4,31.1,22.5,32.3v40.7H293.3v-40.8C293.4,670.9,294.8,647.2,315.8,639.8z"/>
		<g>
			<g>
				<path style="fill:#FFFFFF;stroke:#1DAADB;stroke-width:3;stroke-miterlimit:10;" d="M500.6,678.5c0,0,2.9-25.4-27.7-27.7
					C472.9,650.9,472.4,683.2,500.6,678.5z"/>
				<path style="fill:#FFFFFF;stroke:#1DAADB;stroke-width:3;stroke-miterlimit:10;" d="M478.7,675.3c-8.8-9-8.7-23.9-8.7-24.5
					l0.1-3.1l3.1,0.2c10.8,0.8,19,4.5,24.2,10.8c7.3,8.8,6.2,19.6,6.1,20.1l-0.2,2.2l-2.2,0.4c-2,0.3-3.9,0.5-5.7,0.5
					C488.6,681.9,483,679.7,478.7,675.3z M492.8,662.4c-3.7-4.4-9.4-7.2-16.8-8.3c0.4,4.3,1.9,12.1,6.8,17.1
					c3.7,3.7,8.5,5.3,14.9,4.7C497.6,672.9,496.8,667.2,492.8,662.4z"/>
			</g>
			<g>
				<path style="fill:#FFFFFF;stroke:#1DAADB;stroke-width:3;stroke-miterlimit:10;" d="M308.5,678.5c0,0-2.9-25.4,27.7-27.7
					C336.2,650.9,336.8,683.2,308.5,678.5z"/>
				<path style="fill:#FFFFFF;stroke:#1DAADB;stroke-width:3;stroke-miterlimit:10;" d="M308.1,681.4l-2.2-0.4l-0.2-2.2
					c-0.1-0.5-1.2-11.2,6.1-20.1c5.3-6.4,13.4-10,24.2-10.8l3.1-0.2l0.1,3.1c0,0.6,0.2,15.5-8.7,24.5c-4.3,4.4-9.9,6.6-16.6,6.6
					c0,0,0,0,0,0C312,681.9,310.1,681.7,308.1,681.4z M316.3,662.4c-4,4.8-4.8,10.5-4.9,13.5c0.8,0.1,1.6,0.1,2.4,0.1l0,0
					c5.2,0,9.3-1.6,12.5-4.8c4.9-5,6.4-12.8,6.8-17.2C325.7,655.2,320,658,316.3,662.4z"/>
			</g>
		</g>
		<g>
			<g>
				<path style="fill:#FFFFFF;stroke:#1DAADB;stroke-width:3;stroke-miterlimit:10;" d="M504,712.2c0,0,2.3,24.1-21.9,24.1
					c-27.7,0-23.1-24.1-23.1-24.1H504z"/>
			</g>
			<g>
				<path style="fill:#FFFFFF;stroke:#1DAADB;stroke-width:3;stroke-miterlimit:10;" d="M305.1,712.2c0,0-2.3,24.1,21.9,24.1
					c27.7,0,23.1-24.1,23.1-24.1H305.1z"/>
			</g>
		</g>
		<g>
			<path style="fill:#FFFFFF;stroke:#1DAADB;stroke-width:3;stroke-miterlimit:10;" d="M355.3,680.2c0,8.5,8.4,15.4,18.8,15.4h61
				c10.4,0,18.8-6.9,18.8-15.4l0,0c0-8.5-8.4-15.4-18.8-15.4h-61C363.7,664.8,355.3,671.7,355.3,680.2L355.3,680.2z"/>
			<path style="fill:#FFFFFF;stroke:#1DAADB;stroke-width:3;stroke-miterlimit:10;" d="M352.4,680.2c0-9.7,9.7-17.5,21.7-17.5h61
				c12,0,21.7,7.9,21.7,17.5c0,9.7-9.7,17.5-21.7,17.5h-61C362.1,697.7,352.4,689.9,352.4,680.2z M374.1,667
				c-8.8,0-15.9,5.9-15.9,13.2c0,7.3,7.1,13.2,15.9,13.2h61c8.8,0,15.9-5.9,15.9-13.2c0-7.3-7.1-13.2-15.9-13.2H374.1z"/>
		</g>
		<g>
			<path style="fill:#FFFFFF;stroke:#1DAADB;stroke-width:3;stroke-miterlimit:10;" d="M381.2,672.6c0,1.5,1.1,2.7,2.4,2.7h41.9
				c1.3,0,2.4-1.2,2.4-2.7l0,0c0-1.5-1.1-2.6-2.4-2.6h-41.9C382.3,670,381.2,671.1,381.2,672.6L381.2,672.6z"/>
		</g>
		<g>
			<path style="fill:#FFFFFF;stroke:#1DAADB;stroke-width:3;stroke-miterlimit:10;" d="M377.1,680.2c0,1.5,1.3,2.7,2.8,2.7h49.4
				c1.6,0,2.8-1.2,2.8-2.7l0,0c0-1.5-1.3-2.6-2.8-2.6h-49.4C378.3,677.5,377.1,678.7,377.1,680.2L377.1,680.2z"/>
		</g>
		<g>
			<path style="fill:#FFFFFF;stroke:#1DAADB;stroke-width:3;stroke-miterlimit:10;" d="M381.2,687.8c0,1.5,1.1,2.7,2.4,2.7h41.9
				c1.3,0,2.4-1.2,2.4-2.7l0,0c0-1.5-1.1-2.7-2.4-2.7h-41.9C382.3,685.1,381.2,686.3,381.2,687.8L381.2,687.8z"/>
		</g>
	</g>
	<g>
		<path style="fill:#FFFFFF;" d="M254.6,317l-1.7-1.1l-0.1-2h-0.6c-0.8,0.4-1.6,0.5-2.4,0.4c-0.9-0.4-1.5-1-1.6-2l0.2-0.5h-0.6
			c-0.2,0.7-0.8,1.3-1.8,1.8c-1.1,0.5-2.1,0.7-3.2,0.5c-0.2,0.7-0.8,1.3-1.8,1.8c-0.9,0.5-1.9,0.7-2.9,0.5l-1.4-0.9l-0.2-2.4l2.1-4
			H238l-1.2,0.2l-1.6-0.9c-0.5-1.7-0.1-3.6,1-5.8c6.2-15.5,13.2-31,21-46.3c7.8-15.4,15.8-30.7,23.8-46l-0.5-0.2
			c-0.6-0.8-0.7-1.9-0.3-3.3l2.2-2.5l0.3-1.5l2.8-2.7l2.5-1.6c2.1-3.8,4.4-7.5,6.7-11.2c2.3-3.7,4.8-7.4,7.6-11c1-0.6,2-0.8,3.1-0.7
			l1.5,0.7c1-0.7,2.1-1.6,3.1-2.5c0.9-1.7,2.1-3.3,3.5-4.7c1-0.6,2-0.8,3.1-0.7l1.4,0.9c0.4,0.7,0.4,1.6,0.1,2.7l-1,2h0.6
			c0.9-0.5,1.8-0.7,2.7-0.5l1.4,0.9c0.4,0.7,0.4,1.6,0.1,2.7l-2.6,5.1h0.6c7.3-2.8,14.5-5,21.6-6.6c7.1-1.6,14.2-2.3,21.1-2.2
			c5.2,0.6,10,1.7,14.4,3.2c4.4,1.5,7.9,4.1,10.6,7.7c1,1.9,1.5,4,1.5,6.3c0,2.2-0.6,4.6-1.5,7.2c-6.1,11-14.6,20.7-25.4,28.9
			c-10.9,8.3-21.3,16.7-31.4,25.5h-0.4l-4.7,3.8c-3.3,2.2-6.5,4.4-9.8,6.6c-3.2,2.2-6.5,3.8-9.7,4.7l-1.8-0.9l-2.9,1.3l-0.1,0.4
			c-1.1,0.7-2.3,1-3.5,0.7l-1.2-0.9c-0.4-0.7-0.5-1.5-0.2-2.4l1.4-2h-0.4c-2.6,2.1-5.3,3.3-8.2,3.8l-1.6-1.1
			c-0.4-0.7-0.4-1.6,0.1-2.7l1.8-1.8l1.1-0.9l-1.2-0.5c-0.5-0.8-0.5-1.9,0.1-3.1l0.4-0.5l-1.1-1.3l0.1-0.4h-0.4l-2.5,1.1
			c-3.1,7.5-6.2,15-9.2,22.6c-3,7.5-6.4,14.9-10.2,22l-2.9,0.5l-1.5,4l-3.2,9.6c-0.7,1-1.6,1.6-2.8,2L254.6,317z M290.4,247.9
			c6.2-3.2,12.3-6.5,18.4-9.9c6.1-3.5,12.2-7,18.3-10.6l0.1-0.4l1.3-0.9h0.4c4.6-3.9,9.3-7.8,14-11.7c4.7-3.9,8.3-8.3,10.7-13.3
			c0.6-2.3,0.2-4.2-1.3-5.8c-1-1.2-2.4-1.8-4.3-1.7c-1.9,0.1-3.8,0.1-5.7,0.1c-5.4,0.5-10.8,1.4-16.2,2.7c-5.4,1.3-10.8,3-16.3,4.9
			c-3.5,7.8-6.9,15.6-10.3,23.4c-3.4,7.8-6.8,15.7-10.2,23.6h0.4L290.4,247.9z"/>
		<path style="fill:#FFFFFF;" d="M355.1,313.2c-1-0.4-1.6-1.1-1.6-2.2l0.5-1.5h-0.4c-1.3,1.1-2.6,1.5-4.1,1.3l-1.5-1.3
			c-0.3-0.7-0.2-1.5,0.2-2.4c-1.2,0.1-2-0.3-2.5-1.3c0-1.8,0.3-3.8,1-6c5.3-13.7,12.2-27.2,20.6-40.5c8.4-13.3,18-25.9,28.8-38
			c1-0.6,2-0.8,3.1-0.7l1.7,0.7l3-2l1.5-1.6c1.1-0.6,2.3-0.8,3.5-0.7c0.6-1,1.4-1.6,2.6-2l2-0.2l1.4,0.9c0.4,0.7,0.4,1.6,0.1,2.7
			c-2.1,2.9-4.2,5.9-6.1,8.9c-2,3-3.8,6.1-5.6,9.1h0.6c7.4-4.6,15.1-8.5,23.1-11.6c8-3.1,15.8-4.9,23.5-5.4l1.4,1.1
			c0.4,0.7,0.3,1.6-0.1,2.7l-1.3,1.5l-0.6,0.5h1l4.1-0.4l1.6,1.1c0.5,0.8,0.4,1.8-0.2,2.9l-2,2l-3.2,0.9l-0.1,0.4l-0.3,2.2l-1.9,1.8
			l-3.4,0.9c-1.2,1.9-2.6,3.8-4.3,5.5c-8.3,1.2-16.7,3.2-25,5.9c-8.3,2.7-16.7,5.9-25,9.6c-3.9,7.5-7.4,15.1-10.6,22.8
			c-3.2,7.6-6.1,15.4-8.6,23.1l-0.4,1.6l-3.4,3.8l-1.8,0.7L365,312c-1.1,0.6-2.2,0.8-3.3,0.7l-1.2-0.4
			C358.7,312.9,356.9,313.2,355.1,313.2z"/>
		<path style="fill:#FFFFFF;" d="M453.2,318.1c-4.3-0.5-8.4-1.4-12.1-2.7c-3.8-1.3-6.9-3.5-9.3-6.6c-0.8-3.8-1.3-7.6-1.6-11.5
			c-0.2-3.9,0.7-8.1,2.7-12.7c4.1-10.7,10.2-20.8,18.3-30.3c8.1-9.5,17.5-18.1,28.1-25.8c7.2-5.1,14.7-8.8,22.4-11.2
			c7.8-2.4,15.3-3.4,22.8-3c3.7,0.4,7,1.2,9.8,2.6c2.8,1.4,5.3,3.2,7.5,5.6l-0.1,0.4l1.3,1.3c1.4,2.4,2.4,5,3.1,7.6
			c0.7,2.7,0.7,5.6,0.1,8.7l-1.8,1.8l1.6,0.9c0.4,0.7,0.4,1.6,0.1,2.7l-0.6,1.1h1.2c1-0.6,2-0.8,3.1-0.7l1.4,0.9
			c0.5,1.5,0.5,3,0,4.7c-5.2,8.7-11.3,17.2-18.4,25.4c-7.1,8.2-15.2,15.4-24.5,21.8c0.4,0.7,0.4,1.6,0.1,2.5l-1.6,1.8
			c-7.5,4.4-15,7.8-22.6,10.2c-7.6,2.4-15.1,3.9-22.5,4.4H453.2z M482.3,285.2c8.2-3.3,15.4-7.9,21.5-14c6.1-6.1,12.1-12.3,18-18.6
			l3.3-3.6l1.5-0.5c1.4-2.7,3.1-5.2,5-7.5l1.1-0.4l0.1-0.4l-0.7-1.8c-0.6,1-1.4,1.6-2.6,2l-1.6,0.2l-1.7-1.1l-1.8-4.4
			c-1-0.8-2.2-1.3-3.5-1.5c-7,1-13.9,3.2-20.7,6.8c-6.8,3.6-13.4,7.7-19.6,12.3l-4.7,3.8h-0.4c-5.4,4-10,8.5-13.6,13.6
			c-3.7,5-6.3,10.3-7.9,15.9l-0.5,3.3c2.4,1,5.2,1.4,8.4,1.3c3.4-0.2,6.8-0.8,10.2-1.8C475.5,287.9,478.9,286.6,482.3,285.2z"/>
	</g>
</g>
<g>
</g>
<g>
</g>
<g>
</g>
<g>
</g>
<g>
</g>
<g>
</g>
<g>
</g>
<g>
</g>
<g>
</g>
<g>
</g>
<g>
</g>
<g>
</g>
<g>
</g>
<g>
</g>
<g>
</g>
</svg>
